<svg xml:space="preserve" viewBox="0 0 100 100" y="0" x="0" xmlns="http://www.w3.org/2000/svg" id="圖層_1" version="1.1" preserveAspectRatio="xMidYMid" width="200" height="200" xmlns:xlink="http://www.w3.org/1999/xlink" style="margin-top:0px;margin-right:0px;margin-bottom:0px;margin-left:0px;display:block;shape-rendering:auto;background-position-x:0%;background-position-y:0%;background-size:auto;background-origin:padding-box;background-clip:border-box;background:scroll rgb(255, 255, 255) none  repeat;width:200px;height:200px;;animation:none"><g class="ldl-scale" style="transform-origin:50px 50px;transform:matrix(0.8, 0, 0, 0.8, 0, 0);;animation:none"><g class="ldl-ani"><g class="ldl-layer"><g class="ldl-ani" style="transform-box:view-box;transform:matrix(1, 0, 0, 1, 0, 0);animation-duration:1s;animation-timing-function:linear;animation-delay:-0.571429s;animation-iteration-count:infinite;animation-direction:normal;animation-fill-mode:forwards;animation-play-state:paused;animation-name:animate;animation-timeline:auto;animation-range-start:normal;animation-range-end:normal;transform-origin:50px 50px;;animation:none"><circle r="5.7" stroke-miterlimit="10" stroke-width="3.5" stroke="#333" fill="#cccbca" cy="25" cx="41.3" transform="matrix(0.9659303452129175,-0.25880217966016794,0.25880217966016794,0.9659303452129175,-5.057024710880427,11.54949295445838)" style="stroke-width:3.5px;fill:rgb(204, 203, 202);stroke:rgb(51, 51, 51);transform:matrix(0.96593, -0.258802, 0.258802, 0.96593, -5.05702, 11.5495);;animation:none"></circle></g></g>
<g class="ldl-layer"><g class="ldl-ani" style="transform-box:view-box;transform:matrix(1, 0, 0, 1, 0, 0);animation-duration:1s;animation-timing-function:linear;animation-delay:-0.642857s;animation-iteration-count:infinite;animation-direction:normal;animation-fill-mode:forwards;animation-play-state:paused;animation-name:animate;animation-timeline:auto;animation-range-start:normal;animation-range-end:normal;transform-origin:50px 50px;;animation:none"><path stroke-miterlimit="10" stroke-width="3.5" stroke="#333" fill="#cccbca" d="M41.9 26.8C24.1 31.6 13.2 49.2 17 66.5l66.3-17.8c-5.4-16.9-23.6-26.6-41.4-21.9z" style="stroke-width:3.5px;fill:rgb(204, 203, 202);stroke:rgb(51, 51, 51);;animation:none"></path></g></g>
<g class="ldl-layer"><g class="ldl-ani" style="transform-box:view-box;transform:matrix(1, 0, 0, 1, 0, 0);animation-duration:1s;animation-timing-function:linear;animation-delay:-0.714286s;animation-iteration-count:infinite;animation-direction:normal;animation-fill-mode:forwards;animation-play-state:paused;animation-name:animate;animation-timeline:auto;animation-range-start:normal;animation-range-end:normal;transform-origin:50px 50px;;animation:none"><path stroke-miterlimit="10" stroke-linecap="round" stroke-width="4" stroke="#fff" fill="none" d="M25.2 48.5c-.4.9-.8 1.9-1.1 2.8" style="stroke-width:4px;stroke:rgb(255, 255, 255);fill:none;;animation:none"></path></g></g>
<g class="ldl-layer"><g class="ldl-ani" style="transform-box:view-box;transform:matrix(1, 0, 0, 1, 0, 0);animation-duration:1s;animation-timing-function:linear;animation-delay:-0.785714s;animation-iteration-count:infinite;animation-direction:normal;animation-fill-mode:forwards;animation-play-state:paused;animation-name:animate;animation-timeline:auto;animation-range-start:normal;animation-range-end:normal;transform-origin:50px 50px;;animation:none"><path stroke-miterlimit="10" stroke-linecap="round" stroke-width="4" stroke="#fff" fill="none" d="M38.4 34.8c-3.9 1.9-7.2 4.6-9.7 7.8" style="stroke-width:4px;stroke:rgb(255, 255, 255);fill:none;;animation:none"></path></g></g>
<g class="ldl-layer"><g class="ldl-ani" style="transform-box:view-box;transform:matrix(1, 0, 0, 1, 0, 0);animation-duration:1s;animation-timing-function:linear;animation-delay:-0.857143s;animation-iteration-count:infinite;animation-direction:normal;animation-fill-mode:forwards;animation-play-state:paused;animation-name:animate;animation-timeline:auto;animation-range-start:normal;animation-range-end:normal;transform-origin:50px 50px;;animation:none"><path stroke-miterlimit="10" stroke-width="3.5" stroke="#333" fill="#b2b3b3" d="M90.8 72.2H9.2c-1.3 0-2.1 1.5-1.5 2.7l2.2 4.7c.3.6.9 1 1.5 1h77.3c.7 0 1.2-.4 1.5-1l2.2-4.7c.5-1.2-.3-2.7-1.6-2.7z" style="stroke-width:3.5px;fill:rgb(178, 179, 179);stroke:rgb(51, 51, 51);;animation:none"></path></g></g>
<g class="ldl-layer"><g class="ldl-ani" style="transform-box:view-box;transform:matrix(1, 0, 0, 1, 0, 0);animation-duration:1s;animation-timing-function:linear;animation-delay:-0.928571s;animation-iteration-count:infinite;animation-direction:normal;animation-fill-mode:forwards;animation-play-state:paused;animation-name:animate;animation-timeline:auto;animation-range-start:normal;animation-range-end:normal;transform-origin:50px 50px;;animation:none"><path stroke-miterlimit="10" stroke-width="3.5" stroke="#000" opacity=".2" d="M90.8 72.2H77.9c1.1 0 1.8 1.5 1.3 2.7l-1.8 4.7c-.2.6-.7 1-1.3 1h12.6c.7 0 1.2-.4 1.5-1l2.2-4.7c.5-1.2-.3-2.7-1.6-2.7z" style="stroke-width:3.5px;stroke:rgb(0, 0, 0);opacity:0.2;;animation:none"></path></g></g>
<g class="ldl-layer"><g class="ldl-ani" style="transform-box:view-box;transform:matrix(1, 0, 0, 1, 0, 0);animation-duration:1s;animation-timing-function:linear;animation-delay:-1s;animation-iteration-count:infinite;animation-direction:normal;animation-fill-mode:forwards;animation-play-state:paused;animation-name:animate;animation-timeline:auto;animation-range-start:normal;animation-range-end:normal;transform-origin:50px 50px;;animation:none"><path stroke-miterlimit="10" stroke-width="3.5" stroke="#000" opacity=".2" d="M39.5 23.5c.2.8.2 1.6.1 2.4 13.1-1.9 25.6 7.6 29.5 22.9L16.9 66c0 .2.1.4.1.5l66.3-17.8C78.4 33.4 63 24 47 25.9c.1-.8.1-1.6-.1-2.4-.8-3.1-4-4.9-7-4-.7.2-1.4.5-2 1 .7.7 1.4 1.7 1.6 3z" style="stroke-width:3.5px;stroke:rgb(0, 0, 0);opacity:0.2;;animation:none"></path></g></g>
<metadata xmlns:d="https://loading.io/stock/"></metadata></g></g>
<STYLE type="text/css">@keyframes animate { 0.00% {animation-timing-function: cubic-bezier(0.33,0.00,0.67,0.00);transform: translate(0.00px,0.00px) rotate(0.00deg) scale(1.00, 1.00) skew(0deg, 0.00deg) ;opacity: 1.00;}50.00% {animation-timing-function: cubic-bezier(0.33,0.00,0.67,0.00);transform: translate(0.00px,0.00px) rotate(0.00deg) ;}100.00% {animation-timing-function: cubic-bezier(0.33,0.00,0.67,0.00);transform: translate(0.00px,0.00px) rotate(0.00deg) ;} }</STYLE><!-- [ldio] generated by https://loading.io --></svg>